<?xml version="1.0" encoding="UTF-8"?>
<svg id="Calque_2" data-name="Calque 2" xmlns="http://www.w3.org/2000/svg" viewBox="0 0 105.14 38.65">
  <g id="Calque_1-2" data-name="Calque 1">
    <g>
      <path d="M21.58,14.01c-1.49-4.78,1.13-10.23,6.2-11.5-1.38-.89-2.81-.46-3.97.45-2.73,2.15-4.41,5.44-4.48,8.85s2.52,4.03,3.51,6.52c.71,1.79-.02,4.2-2,4.88-4.13,1.42-6.93.74-10.94,1.03-1.51.11-4.11.57-4.71-.71-.24-.51,0-.95.16-1.43l1.26-3.91.82-2.45.65-1.81c.16-.45.31-.91.51-1.39,1.51-3.75,2.92-7.56,4.42-11.26.12-.29.43-.48.71-.47s.59.34.5.73c-.63,2.73-1.33,4.7-2.34,7.28l-1.58,4.06c-1.23,3.16-2.32,6.31-3.52,9.47,3.8-.87,6.76-.4,10.67-.16l2.46-.56c.65-.15,1.04-.7,1.14-1.36.4-2.57-3.24-2.54-3.88-7.01-.25-1.72-.08-3.37.47-5.04.2-.61.33-1.14.63-1.75,1.17-2.47,3.21-4.57,5.62-5.84,1.85-.97,3.88-.81,5.59.2,2.78,1.65,4.61,4.46,5.18,7.59s-.34,6.16-2.81,8.08c-.05,1.94-.08,3.78-.24,5.65s-.42,3.75-.53,5.65c-.09,1.49.24,8.5-1.41,8.83-.23.05-.56-.15-.77-.44-1.74-2.42-3.49-4.85-5.68-6.88-1.91-1.77-4.68-2.23-6.96-.97-1.39.76-1.73,2.59-2.6,2.64-.3.02-.71-.15-.86-.39-.77-1.24-2.28-3.95-3.81-3.57-1.11.28-1.93,1.08-2.65,1.91-1.57,1.8-2.54,3.95-3.38,6.14-.34.89-1.3,3.99-2.59,3.5-.87-.34.21-2.89.42-3.46,1.23-3.42,3.22-7.87,6.6-9.58,2.92-1.49,4.96.67,6.34,3,1.46-2.34,4.19-3.54,6.93-3.05,3.61.64,6.57,4.21,8.4,7.42l.09-3.55c.07-2.9-.1-5.75.02-8.61l.11-2.76c-3.49,1.54-6.67-.86-7.65-4ZM29.45,15.39c.19-2.86.92-7.54.15-10.04-.22-.71-.81-1.04-1.53-.91-2.47.45-4.39,2.56-4.72,4.99-.25,1.78-.08,3.69.92,5.18.59.88,1.41,1.48,2.39,1.63s2.06-.19,2.81-.85ZM31.91,12.57c.49-1.18.66-2.56.28-3.83l-.28,3.83Z"/>
      <g>
        <path d="M38.56,33.01V6.07h2.66v26.94h-2.66Z"/>
        <path d="M42.85,17.52v-2.4h13.16v2.4h-13.16ZM47.34,33.01V12.08c0-1.24.27-2.35.82-3.31.54-.97,1.31-1.72,2.28-2.27.98-.54,2.09-.82,3.33-.82.96,0,1.81.17,2.55.51.74.34,1.41.82,2.02,1.43l-1.75,1.75c-.41-.41-.83-.7-1.28-.89-.44-.19-.96-.28-1.54-.28-1.19,0-2.11.35-2.76,1.05-.65.7-.97,1.67-.97,2.91v20.85h-2.7Z"/>
        <path d="M57.16,33.01V15.13h2.66v17.88h-2.66ZM59.82,22.58l-1.1-.5c0-2.26.55-4.04,1.65-5.36,1.1-1.32,2.62-1.98,4.55-1.98.89,0,1.7.16,2.44.47.74.32,1.42.82,2.05,1.5l-1.75,1.86c-.43-.48-.91-.82-1.43-1.03-.52-.2-1.11-.3-1.77-.3-1.37,0-2.48.45-3.35,1.35s-1.29,2.23-1.29,3.98Z"/>
        <path d="M77.97,33.39c-1.8,0-3.41-.41-4.83-1.22-1.42-.81-2.54-1.93-3.37-3.35-.83-1.42-1.24-3.02-1.24-4.79s.41-3.33,1.22-4.74c.81-1.41,1.92-2.52,3.31-3.33,1.39-.81,2.95-1.22,4.68-1.22,1.62,0,3.06.37,4.32,1.1,1.26.74,2.24,1.76,2.97,3.06s1.08,2.81,1.08,4.51c0,.2-.01.44-.04.71-.03.27-.08.58-.15.93h-15.48v-2.28h14.04l-.95.84c.02-1.32-.2-2.46-.67-3.41s-1.14-1.69-2.02-2.21c-.87-.52-1.93-.78-3.18-.78s-2.42.28-3.39.84c-.96.56-1.72,1.34-2.26,2.34-.55,1-.82,2.19-.82,3.55s.29,2.58.86,3.62c.57,1.04,1.37,1.85,2.4,2.43,1.03.59,2.21.88,3.56.88,1.09,0,2.09-.2,3.01-.59.91-.39,1.69-.98,2.32-1.77l1.71,1.75c-.84.99-1.87,1.76-3.1,2.3s-2.56.82-3.98.82Z"/>
        <path d="M95.89,33.39c-1.65,0-3.13-.41-4.45-1.22-1.32-.81-2.37-1.92-3.14-3.33-.77-1.41-1.16-2.98-1.16-4.73s.39-3.37,1.16-4.78c.77-1.41,1.82-2.52,3.14-3.35,1.32-.82,2.8-1.24,4.45-1.24,1.34,0,2.56.27,3.65.8,1.09.53,2,1.29,2.72,2.26s1.15,2.12,1.27,3.44v5.59c-.15,1.29-.58,2.43-1.27,3.41-.7.98-1.59,1.74-2.68,2.3-1.09.56-2.32.84-3.69.84ZM96.35,30.84c1.24,0,2.33-.29,3.27-.86.94-.57,1.67-1.37,2.21-2.4s.8-2.2.8-3.52-.27-2.52-.82-3.54c-.55-1.02-1.29-1.81-2.23-2.4-.94-.58-2.03-.87-3.27-.87s-2.35.29-3.31.87c-.96.59-1.72,1.39-2.26,2.42-.54,1.02-.82,2.2-.82,3.52s.27,2.49.82,3.52,1.31,1.83,2.28,2.4c.98.57,2.09.86,3.33.86ZM105.14,33.01h-2.66v-4.79l.53-4.42-.53-4.3V6.07h2.66v26.94Z"/>
      </g>
    </g>
  </g>
</svg>